<?xml version="1.0" encoding="UTF-8"?>
<svg width="300px" height="39px" viewBox="0 0 300 39" version="1.1" xmlns="http://www.w3.org/2000/svg" xmlns:xlink="http://www.w3.org/1999/xlink">
    <title>alexisspicerlogo copy 6</title>
    <g id="alexisspicerlogo-copy-6" stroke="none" stroke-width="1" fill="none" fill-rule="evenodd">
        <g id="Group-1" transform="translate(10.101010, 9.420770)" fill="#24222C" fill-rule="nonzero" stroke="#24222C" stroke-width="1.01010101">
            <polygon id="V" transform="translate(9.595960, 10.310133) scale(-1, -1) translate(-9.595960, -10.310133) " points="19.1919192 0.309343434 16.3431187 0.309343434 9.5959596 15.0857507 2.84880051 0.309343434 0 0.309343434 9.5959596 20.3109217"></polygon>
            <polygon id="Path-Copy" points="41.0779672 20.301452 41.0779672 18.0823864 31.7818813 18.0823864 31.7818813 0.299873737 29.2929293 0.299873737 29.2929293 20.301452"></polygon>
            <polygon id="Path-Copy-2" points="64.2834596 20.301452 64.2834596 18.0823864 53.6679293 18.0823864 53.6679293 11.1852904 64.073548 11.1852904 64.073548 8.96622475 53.6679293 8.96622475 53.6679293 2.51893939 64.2834596 2.51893939 64.2834596 0.299873737 51.1789773 0.299873737 51.1789773 20.301452"></polygon>
            <polygon id="Path-Copy-3" points="77.4131944 20.301452 83.8005051 11.7850379 90.1878157 20.301452 93.186553 20.301452 85.4198232 10.0157828 92.7367424 0.299873737 89.7080177 0.299873737 83.8005051 8.30650253 77.8630051 0.299873737 74.8342803 0.299873737 82.1811869 10.0457702 74.3844697 20.301452"></polygon>
            <polygon id="Path-Copy-4" points="105.776515 20.301452 105.776515 0.299873737 103.287563 0.299873737 103.287563 20.301452"></polygon>
            <path d="M123.554293,20.6613005 C128.95202,20.6613005 130.931187,17.6925505 130.931187,14.7837753 C130.931187,10.7382059 127.478267,9.64432601 124.30229,8.79194795 L123.944129,8.69633838 L123.944129,8.69633838 C121.395202,8.00662879 119.086174,7.40688131 119.086174,5.39772727 C119.086174,3.50852273 120.795455,2.21906566 123.194444,2.21906566 C125.383523,2.21906566 127.482639,2.96875 128.982008,4.61805556 L130.481376,2.78882576 C128.802083,1.01957071 126.433081,0 123.374369,0 C119.446023,0 116.50726,2.24905303 116.50726,5.54766414 C116.50726,8.82128577 118.985383,9.99162633 121.668281,10.7767124 L122.027015,10.8792584 C122.146864,10.91278 122.266919,10.9456914 122.386978,10.9781434 L122.746973,11.0742723 C122.926779,11.1217986 123.106148,11.1686308 123.284407,11.2152778 C125.923295,11.9349747 128.352273,12.594697 128.352273,14.9936869 C128.352273,16.5230429 127.212753,18.4422348 123.644255,18.4422348 C120.825442,18.4422348 118.666351,17.0628157 117.346907,15.5934343 L115.877525,17.4826389 C117.526831,19.3418561 120.075758,20.6613005 123.554293,20.6613005 Z" id="Path-Copy-5"></path>
        </g>
        <g id="Group-2" transform="translate(161.616162, 9.390783)" fill="#24222C" fill-rule="nonzero" stroke="#24222C" stroke-width="1.01010101">
            <path d="M7.67676768,20.6912879 C13.0744949,20.6912879 15.0536616,17.7225379 15.0536616,14.8137626 C15.0536616,10.7681933 11.6007419,9.67431338 8.42476462,8.82193533 L8.06660354,8.72632576 L8.06660354,8.72632576 C5.51767677,8.03661616 3.20864899,7.43686869 3.20864899,5.42771465 C3.20864899,3.5385101 4.91792929,2.24905303 7.31691919,2.24905303 C9.50599747,2.24905303 11.6051136,2.99873737 13.1044823,4.64804293 L14.603851,2.81881313 C12.9245581,1.04955808 10.5555556,0.0299873737 7.49684343,0.0299873737 C3.56849747,0.0299873737 0.629734848,2.2790404 0.629734848,5.57765152 C0.629734848,8.85127315 3.10785809,10.0216137 5.79075623,10.8066998 L6.14948988,10.9092458 C6.26933921,10.9427673 6.38939344,10.9756787 6.50945301,11.0081308 L6.86944814,11.1042597 C7.04925412,11.151786 7.22862304,11.1986181 7.40688131,11.2452652 C10.0457702,11.9649621 12.4747475,12.6246843 12.4747475,15.0236742 C12.4747475,16.5530303 11.3352273,18.4722222 7.7667298,18.4722222 C4.94791667,18.4722222 2.78882576,17.092803 1.46938131,15.6234217 L0,17.5126263 C1.64930556,19.3718434 4.19823232,20.6912879 7.67676768,20.6912879 Z" id="Path-Copy-6"></path>
            <path d="M33.1912879,0.329861111 C37.209596,0.329861111 39.458649,3.08869949 39.458649,6.35732323 C39.458649,9.62594697 37.1496212,12.3847854 33.1912879,12.3847854 L33.1912879,12.3847854 L27.6436237,12.3847854 L27.6436237,20.3314394 L25.1546717,20.3314394 L25.1546717,0.329861111 Z M32.8914141,2.54892677 L27.6436237,2.54892677 L27.6436237,10.1657197 L32.8914141,10.1657197 C35.2604167,10.1657197 36.8797348,8.60637626 36.8797348,6.35732323 C36.8797348,4.1082702 35.2604167,2.54892677 32.8914141,2.54892677 L32.8914141,2.54892677 Z" id="Combined-Shape-Copy"></path>
            <polygon id="Path-Copy-7" points="52.0486111 20.3314394 52.0486111 0.329861111 49.5596591 0.329861111 49.5596591 20.3314394"></polygon>
            <path d="M72.3453283,20.6912879 C75.9738005,20.6912879 78.3727904,19.0119949 80.0520833,16.7329545 L77.9229798,15.563447 C76.7834596,17.2727273 74.7143308,18.4722222 72.3453283,18.4722222 C68.0571338,18.4722222 64.7285354,15.083649 64.7285354,10.3456439 C64.7285354,5.57765152 68.0571338,2.21906566 72.3453283,2.21906566 C74.7143308,2.21906566 76.7834596,3.44854798 77.9229798,5.12784091 L80.022096,3.95833333 C78.4327652,1.7092803 75.9738005,0 72.3453283,0 C66.6777146,0 62.1496212,4.19823232 62.1496212,10.3456439 C62.1496212,16.4930556 66.6777146,20.6912879 72.3453283,20.6912879 Z" id="Path-Copy-8"></path>
            <polygon id="Path-Copy-9" points="103.257576 20.3314394 103.257576 18.1123737 92.6420455 18.1123737 92.6420455 11.2152778 103.047664 11.2152778 103.047664 8.99621212 92.6420455 8.99621212 92.6420455 2.54892677 103.257576 2.54892677 103.257576 0.329861111 90.1530934 0.329861111 90.1530934 20.3314394"></polygon>
            <path d="M121.395202,0.329861111 C125.053662,0.329861111 127.662563,2.66887626 127.662563,6.35732323 C127.662563,9.95580808 125.203598,11.9349747 122.474747,12.1748737 L122.474747,12.1748737 L127.872475,20.3314394 L124.933712,20.3314394 L119.835859,12.3847854 L115.847538,12.3847854 L115.847538,20.3314394 L113.358586,20.3314394 L113.358586,0.329861111 Z M121.095328,2.54892677 L115.847538,2.54892677 L115.847538,10.1957071 L121.095328,10.1957071 C123.464331,10.1957071 125.083649,8.60637626 125.083649,6.35732323 C125.083649,4.1082702 123.464331,2.54892677 121.095328,2.54892677 L121.095328,2.54892677 Z" id="Combined-Shape"></path>
        </g>
    </g>
</svg>