<svg xmlns="http://www.w3.org/2000/svg" width="192" height="30" viewBox="0 0 192 30">
  <g fill="none" fill-rule="evenodd">
    <polygon fill="#FE5962" fill-rule="nonzero" points="22.392 7.398 20.226 7.398 15.096 18.633 9.966 7.398 7.8 7.398 15.096 22.606" transform="rotate(180 15.096 15.002)"/>
    <polygon fill="#FE5962" fill-rule="nonzero" points="35.936 22.598 35.936 20.911 28.868 20.911 28.868 7.391 26.976 7.391 26.976 22.598"/>
    <polygon fill="#FE5962" fill-rule="nonzero" points="50.068 22.598 50.068 20.911 41.996 20.911 41.996 15.667 49.908 15.667 49.908 13.98 41.996 13.98 41.996 9.078 50.068 9.078 50.068 7.391 40.104 7.391 40.104 22.598"/>
    <polygon fill="#FE5962" fill-rule="nonzero" points="56.575 22.598 61.432 16.123 66.288 22.598 68.568 22.598 62.663 14.778 68.226 7.391 65.923 7.391 61.432 13.478 56.917 7.391 54.614 7.391 60.2 14.801 54.272 22.598"/>
    <polygon fill="#FE5962" fill-rule="nonzero" points="75.235 22.598 75.235 7.391 73.343 7.391 73.343 22.598"/>
    <path fill="#FE5962" fill-rule="nonzero" d="M85.2168 22.872C89.3208 22.872 90.8256 20.6148 90.8256 18.4032 90.8256 15.3272727 88.2002761 14.495574 85.785517 13.8474939L85.5132 13.7748 85.5132 13.7748C83.5752 13.2504 81.8196 12.7944 81.8196 11.2668 81.8196 9.8304 83.1192 8.85 84.9432 8.85 86.6076 8.85 88.2036 9.42 89.3436 10.674L90.4836 9.2832C89.2068 7.938 87.4056 7.1628 85.08 7.1628 82.0932 7.1628 79.8588 8.8728 79.8588 11.3808 79.8588 13.8698 81.7429667 14.7596333 83.7828278 15.35655L84.0555801 15.4345178C84.146704 15.4600049 84.2379836 15.4850281 84.3292673 15.509702L84.6029788 15.5827907C84.7396889 15.6189259 84.8760667 15.6545333 85.0116 15.69 87.018 16.2372 88.8648 16.7388 88.8648 18.5628 88.8648 19.7256 87.9984 21.1848 85.2852 21.1848 83.142 21.1848 81.5004 20.136 80.4972 19.0188L79.38 20.4552C80.634 21.8688 82.572 22.872 85.2168 22.872zM106.26 22.872C110.364 22.872 111.8688 20.6148 111.8688 18.4032 111.8688 15.3272727 109.243476 14.495574 106.828717 13.8474939L106.5564 13.7748 106.5564 13.7748C104.6184 13.2504 102.8628 12.7944 102.8628 11.2668 102.8628 9.8304 104.1624 8.85 105.9864 8.85 107.6508 8.85 109.2468 9.42 110.3868 10.674L111.5268 9.2832C110.25 7.938 108.4488 7.1628 106.1232 7.1628 103.1364 7.1628 100.902 8.8728 100.902 11.3808 100.902 13.8698 102.786167 14.7596333 104.826028 15.35655L105.09878 15.4345178C105.189904 15.4600049 105.281184 15.4850281 105.372467 15.509702L105.646179 15.5827907C105.782889 15.6189259 105.919267 15.6545333 106.0548 15.69 108.0612 16.2372 109.908 16.7388 109.908 18.5628 109.908 19.7256 109.0416 21.1848 106.3284 21.1848 104.1852 21.1848 102.5436 20.136 101.5404 19.0188L100.4232 20.4552C101.6772 21.8688 103.6152 22.872 106.26 22.872zM122.3064 7.3908C125.3616 7.3908 127.0716 9.4884 127.0716 11.9736 127.0716 14.4588 125.316 16.5564 122.3064 16.5564L122.3064 16.5564 118.0884 16.5564 118.0884 22.5984 116.196 22.5984 116.196 7.3908zM122.0784 9.078L118.0884 9.078 118.0884 14.8692 122.0784 14.8692C123.8796 14.8692 125.1108 13.6836 125.1108 11.9736 125.1108 10.2636 123.8796 9.078 122.0784 9.078L122.0784 9.078z"/>
    <polygon fill="#FE5962" fill-rule="nonzero" points="134.172 22.598 134.172 7.391 132.28 7.391 132.28 22.598"/>
    <path fill="#FE5962" fill-rule="nonzero" d="M146.3652,22.872 C149.124,22.872 150.948,21.5952 152.2248,19.8624 L150.606,18.9732 C149.7396,20.2728 148.1664,21.1848 146.3652,21.1848 C143.1048,21.1848 140.574,18.6084 140.574,15.006 C140.574,11.3808 143.1048,8.8272 146.3652,8.8272 C148.1664,8.8272 149.7396,9.762 150.606,11.0388 L152.202,10.1496 C150.9936,8.4396 149.124,7.14 146.3652,7.14 C142.056,7.14 138.6132,10.332 138.6132,15.006 C138.6132,19.68 142.056,22.872 146.3652,22.872 Z"/>
    <polygon fill="#FE5962" fill-rule="nonzero" points="167.305 22.598 167.305 20.911 159.234 20.911 159.234 15.667 167.146 15.667 167.146 13.98 159.234 13.98 159.234 9.078 167.305 9.078 167.305 7.391 157.342 7.391 157.342 22.598"/>
    <path fill="#FE5962" fill-rule="nonzero" d="M179.1252,7.3908 C181.9068,7.3908 183.8904,9.1692 183.8904,11.9736 C183.8904,14.7096 182.0208,16.2144 179.946,16.3968 L179.946,16.3968 L184.05,22.5984 L181.8156,22.5984 L177.9396,16.5564 L174.9072,16.5564 L174.9072,22.5984 L173.0148,22.5984 L173.0148,7.3908 Z M178.8972,9.078 L174.9072,9.078 L174.9072,14.892 L178.8972,14.892 C180.6984,14.892 181.9296,13.6836 181.9296,11.9736 C181.9296,10.2636 180.6984,9.078 178.8972,9.078 L178.8972,9.078 Z"/>
  </g>
</svg>
