<svg xmlns="http://www.w3.org/2000/svg" width="160" height="25" viewBox="0 0 160 25">
  <g fill="none" fill-rule="evenodd">
    <polygon fill="#100318" fill-rule="nonzero" points="18.66 6.165 16.855 6.165 12.58 15.527 8.305 6.165 6.5 6.165 12.58 18.838" transform="rotate(180 12.58 12.502)"/>
    <polygon fill="#100318" fill-rule="nonzero" points="29.947 18.832 29.947 17.426 24.057 17.426 24.057 6.159 22.48 6.159 22.48 18.832"/>
    <polygon fill="#100318" fill-rule="nonzero" points="41.723 18.832 41.723 17.426 34.997 17.426 34.997 13.056 41.59 13.056 41.59 11.65 34.997 11.65 34.997 7.565 41.723 7.565 41.723 6.159 33.42 6.159 33.42 18.832"/>
    <polygon fill="#100318" fill-rule="nonzero" points="47.146 18.832 51.193 13.436 55.24 18.832 57.14 18.832 52.219 12.315 56.855 6.159 54.936 6.159 51.193 11.232 47.431 6.159 45.512 6.159 50.167 12.334 45.227 18.832"/>
    <polygon fill="#100318" fill-rule="nonzero" points="62.696 18.832 62.696 6.159 61.119 6.159 61.119 18.832"/>
    <path fill="#100318" fill-rule="nonzero" d="M71.014 19.06C74.434 19.06 75.688 17.179 75.688 15.336 75.688 12.7727273 73.5002301 12.079645 71.4879309 11.5395782L71.261 11.479 71.261 11.479C69.646 11.042 68.183 10.662 68.183 9.389 68.183 8.192 69.266 7.375 70.786 7.375 72.173 7.375 73.503 7.85 74.453 8.895L75.403 7.736C74.339 6.615 72.838 5.969 70.9 5.969 68.411 5.969 66.549 7.394 66.549 9.484 66.549 11.5581667 68.1191389 12.2996944 69.8190231 12.797125L70.0463168 12.8620981C70.1222533 12.8833374 70.1983197 12.90419 70.2743894 12.9247517L70.5024823 12.985659C70.6164074 13.0157716 70.7300556 13.0454444 70.843 13.075 72.515 13.531 74.054 13.949 74.054 15.469 74.054 16.438 73.332 17.654 71.071 17.654 69.285 17.654 67.917 16.78 67.081 15.849L66.15 17.046C67.195 18.224 68.81 19.06 71.014 19.06zM88.55 19.06C91.97 19.06 93.224 17.179 93.224 15.336 93.224 12.7727273 91.0362301 12.079645 89.0239309 11.5395782L88.797 11.479 88.797 11.479C87.182 11.042 85.719 10.662 85.719 9.389 85.719 8.192 86.802 7.375 88.322 7.375 89.709 7.375 91.039 7.85 91.989 8.895L92.939 7.736C91.875 6.615 90.374 5.969 88.436 5.969 85.947 5.969 84.085 7.394 84.085 9.484 84.085 11.5581667 85.6551389 12.2996944 87.3550231 12.797125L87.5823168 12.8620981C87.6582533 12.8833374 87.7343197 12.90419 87.8103894 12.9247517L88.0384823 12.985659C88.1524074 13.0157716 88.2660556 13.0454444 88.379 13.075 90.051 13.531 91.59 13.949 91.59 15.469 91.59 16.438 90.868 17.654 88.607 17.654 86.821 17.654 85.453 16.78 84.617 15.849L83.686 17.046C84.731 18.224 86.346 19.06 88.55 19.06zM101.922 6.159C104.468 6.159 105.893 7.907 105.893 9.978 105.893 12.049 104.43 13.797 101.922 13.797L101.922 13.797 98.407 13.797 98.407 18.832 96.83 18.832 96.83 6.159zM101.732 7.565L98.407 7.565 98.407 12.391 101.732 12.391C103.233 12.391 104.259 11.403 104.259 9.978 104.259 8.553 103.233 7.565 101.732 7.565L101.732 7.565z"/>
    <polygon fill="#100318" fill-rule="nonzero" points="111.81 18.832 111.81 6.159 110.233 6.159 110.233 18.832"/>
    <path fill="#100318" fill-rule="nonzero" d="M121.971,19.06 C124.27,19.06 125.79,17.996 126.854,16.552 L125.505,15.811 C124.783,16.894 123.472,17.654 121.971,17.654 C119.254,17.654 117.145,15.507 117.145,12.505 C117.145,9.484 119.254,7.356 121.971,7.356 C123.472,7.356 124.783,8.135 125.505,9.199 L126.835,8.458 C125.828,7.033 124.27,5.95 121.971,5.95 C118.38,5.95 115.511,8.61 115.511,12.505 C115.511,16.4 118.38,19.06 121.971,19.06 Z"/>
    <polygon fill="#100318" fill-rule="nonzero" points="139.421 18.832 139.421 17.426 132.695 17.426 132.695 13.056 139.288 13.056 139.288 11.65 132.695 11.65 132.695 7.565 139.421 7.565 139.421 6.159 131.118 6.159 131.118 18.832"/>
    <path fill="#100318" fill-rule="nonzero" d="M149.271,6.159 C151.589,6.159 153.242,7.641 153.242,9.978 C153.242,12.258 151.684,13.512 149.955,13.664 L149.955,13.664 L153.375,18.832 L151.513,18.832 L148.283,13.797 L145.756,13.797 L145.756,18.832 L144.179,18.832 L144.179,6.159 Z M149.081,7.565 L145.756,7.565 L145.756,12.41 L149.081,12.41 C150.582,12.41 151.608,11.403 151.608,9.978 C151.608,8.553 150.582,7.565 149.081,7.565 L149.081,7.565 Z"/>
  </g>
</svg>
