<svg xmlns="http://www.w3.org/2000/svg" width="250" height="39" viewBox="0 0 250 39">
  <g fill="none" fill-rule="evenodd">
    <polygon fill="#FF8C61" fill-rule="nonzero" points="29.156 9.633 26.336 9.633 19.656 24.261 12.977 9.633 10.156 9.633 19.656 29.434" transform="rotate(180 19.656 19.534)"/>
    <polygon fill="#FF8C61" fill-rule="nonzero" points="46.792 29.425 46.792 27.228 37.589 27.228 37.589 9.623 35.125 9.623 35.125 29.425"/>
    <polygon fill="#FF8C61" fill-rule="nonzero" points="65.192 29.425 65.192 27.228 54.683 27.228 54.683 20.4 64.984 20.4 64.984 18.203 54.683 18.203 54.683 11.82 65.192 11.82 65.192 9.623 52.219 9.623 52.219 29.425"/>
    <polygon fill="#FF8C61" fill-rule="nonzero" points="73.666 29.425 79.989 20.994 86.313 29.425 89.281 29.425 81.592 19.242 88.836 9.623 85.838 9.623 79.989 17.55 74.111 9.623 71.112 9.623 78.386 19.272 70.667 29.425"/>
    <polygon fill="#FF8C61" fill-rule="nonzero" points="97.963 29.425 97.963 9.623 95.498 9.623 95.498 29.425"/>
    <path fill="#FF8C61" fill-rule="nonzero" d="M110.959375 29.78125C116.303125 29.78125 118.2625 26.8421875 118.2625 23.9625 118.2625 19.9573864 114.84411 18.8744452 111.699892 18.030591L111.345313 17.9359375 111.345313 17.9359375C108.821875 17.253125 106.535938 16.659375 106.535938 14.6703125 106.535938 12.8 108.228125 11.5234375 110.603125 11.5234375 112.770313 11.5234375 114.848438 12.265625 116.332813 13.8984375L117.817188 12.0875C116.154688 10.3359375 113.809375 9.3265625 110.78125 9.3265625 106.892188 9.3265625 103.982813 11.553125 103.982813 14.81875 103.982813 18.0596354 106.436155 19.2182726 109.092224 19.9955078L109.44737 20.0970283C109.566021 20.1302147 109.684875 20.1627969 109.803733 20.1949245L110.160129 20.2900921C110.338137 20.3371431 110.515712 20.3835069 110.692188 20.4296875 113.304688 21.1421875 115.709375 21.7953125 115.709375 24.1703125 115.709375 25.684375 114.58125 27.584375 111.048438 27.584375 108.257813 27.584375 106.120313 26.21875 104.814063 24.7640625L103.359375 26.634375C104.992188 28.475 107.515625 29.78125 110.959375 29.78125zM138.359375 29.78125C143.703125 29.78125 145.6625 26.8421875 145.6625 23.9625 145.6625 19.9573864 142.24411 18.8744452 139.099892 18.030591L138.745312 17.9359375 138.745312 17.9359375C136.221875 17.253125 133.935937 16.659375 133.935937 14.6703125 133.935937 12.8 135.628125 11.5234375 138.003125 11.5234375 140.170312 11.5234375 142.248437 12.265625 143.732812 13.8984375L145.217187 12.0875C143.554687 10.3359375 141.209375 9.3265625 138.18125 9.3265625 134.292187 9.3265625 131.382812 11.553125 131.382812 14.81875 131.382812 18.0596354 133.836155 19.2182726 136.492224 19.9955078L136.84737 20.0970283C136.966021 20.1302147 137.084875 20.1627969 137.203733 20.1949245L137.560129 20.2900921C137.738137 20.3371431 137.915712 20.3835069 138.092187 20.4296875 140.704687 21.1421875 143.109375 21.7953125 143.109375 24.1703125 143.109375 25.684375 141.98125 27.584375 138.448437 27.584375 135.657812 27.584375 133.520312 26.21875 132.214062 24.7640625L130.759375 26.634375C132.392187 28.475 134.915625 29.78125 138.359375 29.78125zM159.253125 9.6234375C163.23125 9.6234375 165.457813 12.3546875 165.457813 15.590625 165.457813 18.8265625 163.171875 21.5578125 159.253125 21.5578125L159.253125 21.5578125 153.760938 21.5578125 153.760938 29.425 151.296875 29.425 151.296875 9.6234375zM158.95625 11.8203125L153.760938 11.8203125 153.760938 19.3609375 158.95625 19.3609375C161.301563 19.3609375 162.904688 17.8171875 162.904688 15.590625 162.904688 13.3640625 161.301563 11.8203125 158.95625 11.8203125L158.95625 11.8203125z"/>
    <polygon fill="#FF8C61" fill-rule="nonzero" points="174.703 29.425 174.703 9.623 172.239 9.623 172.239 29.425"/>
    <path fill="#FF8C61" fill-rule="nonzero" d="M190.579687,29.78125 C194.171875,29.78125 196.546875,28.11875 198.209375,25.8625 L196.101562,24.7046875 C194.973437,26.396875 192.925,27.584375 190.579687,27.584375 C186.334375,27.584375 183.039062,24.2296875 183.039062,19.5390625 C183.039062,14.81875 186.334375,11.49375 190.579687,11.49375 C192.925,11.49375 194.973437,12.7109375 196.101562,14.3734375 L198.179687,13.215625 C196.60625,10.9890625 194.171875,9.296875 190.579687,9.296875 C184.96875,9.296875 180.485937,13.453125 180.485937,19.5390625 C180.485937,25.625 184.96875,29.78125 190.579687,29.78125 Z"/>
    <polygon fill="#FF8C61" fill-rule="nonzero" points="217.845 29.425 217.845 27.228 207.336 27.228 207.336 20.4 217.637 20.4 217.637 18.203 207.336 18.203 207.336 11.82 217.845 11.82 217.845 9.623 204.872 9.623 204.872 29.425"/>
    <path fill="#FF8C61" fill-rule="nonzero" d="M233.235937,9.6234375 C236.857812,9.6234375 239.440625,11.9390625 239.440625,15.590625 C239.440625,19.153125 237.00625,21.1125 234.304688,21.35 L234.304688,21.35 L239.648438,29.425 L236.739062,29.425 L231.692187,21.5578125 L227.74375,21.5578125 L227.74375,29.425 L225.279687,29.425 L225.279687,9.6234375 Z M232.939062,11.8203125 L227.74375,11.8203125 L227.74375,19.390625 L232.939062,19.390625 C235.284375,19.390625 236.8875,17.8171875 236.8875,15.590625 C236.8875,13.3640625 235.284375,11.8203125 232.939062,11.8203125 L232.939062,11.8203125 Z"/>
  </g>
</svg>
