<?xml version="1.0" encoding="UTF-8"?>
<svg width="558px" height="558px" viewBox="0 0 558 558" version="1.1" xmlns="http://www.w3.org/2000/svg" xmlns:xlink="http://www.w3.org/1999/xlink">
    <title>asfavicon copy</title>
    <g id="asfavicon-copy" stroke="none" stroke-width="1" fill="none" fill-rule="evenodd">
        <g id="AS" transform="translate(85.000000, 0.000000)" fill-rule="nonzero">
            <polygon id="V" fill="#7A637F" transform="translate(185.606861, 193.438575) scale(-1, -1) translate(-185.606861, -193.438575) " points="371.213722 0 316.111685 0 185.606861 270.823415 55.1020368 0 0 0 185.606861 386.877151"></polygon>
            <path d="M245.314726,558 C349.718585,558 388,500.577454 388,444.31496 C388,366.064219 321.212976,344.906031 259.782624,328.419052 L252.855004,326.56974 C203.553182,313.229149 158.891531,301.628635 158.891531,262.766912 C158.891531,226.225292 191.952753,201.284186 238.354468,201.284186 C280.696034,201.284186 321.297534,215.784829 350.298606,247.686243 L379.299678,212.304675 C346.818478,178.083158 300.996784,158.362284 241.834597,158.362284 C165.851788,158.362284 109.009687,201.864212 109.009687,265.667041 C109.009687,328.986514 156.942015,351.623629 208.835137,366.809024 L215.773831,368.792503 C218.091979,369.440888 220.41409,370.07747 222.736305,370.705169 L229.699399,372.564526 C233.17724,373.483795 236.646628,374.389638 240.094533,375.2919 C291.13642,389.212517 338.118156,401.973083 338.118156,448.37514 C338.118156,477.956452 316.077341,515.078097 247.05479,515.078097 C192.532775,515.078097 150.771231,488.396914 125.250288,459.975654 L96.8292371,496.517274 C128.730416,532.478869 178.032239,558 245.314726,558 Z" id="Path" fill="#EB796E"></path>
        </g>
    </g>
</svg>