<svg xmlns="http://www.w3.org/2000/svg" width="100" height="100" viewBox="0 0 100 100">
  <g fill="none" transform="translate(25 12.5)">
    <polygon fill="#4C3549" points="48.64 0 41.42 0 24.32 35.486 7.22 0 0 0 24.32 50.692" transform="rotate(180 24.32 25.346)"/>
    <path fill="#FC766A" d="M32.1435,73.114 C45.8235,73.114 50.8395,65.59 50.8395,58.218 C50.8395,47.9649091 42.0884203,45.1925798 34.0392234,43.0323129 L33.1315,42.79 L33.1315,42.79 C26.6715,41.042 20.8195,39.522 20.8195,34.43 C20.8195,29.642 25.1515,26.374 31.2315,26.374 C36.7795,26.374 42.0995,28.274 45.8995,32.454 L49.6995,27.818 C45.4435,23.334 39.4395,20.75 31.6875,20.75 C21.7315,20.75 14.2835,26.45 14.2835,34.81 C14.2835,43.1066667 20.5640556,46.0727778 27.3635926,48.0625 L28.2727672,48.3223925 C28.5765133,48.4073496 28.8807787,48.4907602 29.1850577,48.5730066 L30.0974294,48.8166358 C30.5531296,48.9370864 31.0077222,49.0557778 31.4595,49.174 C38.1475,50.998 44.3035,52.67 44.3035,58.75 C44.3035,62.626 41.4155,67.49 32.3715,67.49 C25.2275,67.49 19.7555,63.994 16.4115,60.27 L12.6875,65.058 C16.8675,69.77 23.3275,73.114 32.1435,73.114 Z"/>
  </g>
</svg>
