<svg width="32" height="124" xmlns="http://www.w3.org/2000/svg">

 <g>
  <title>background</title>
  <rect fill="none" id="canvas_background" height="126" width="34" y="-1" x="-1"/>
 </g>
 <g>
  <title>Layer 1</title>
  <path stroke="null" fill="#4c3549" id="XMLID_34_" d="m24.72897,4.870089c-7.150719,0 -7.150719,7.243574 -7.150719,7.278397c0,0 -0.478994,7.243576 7.150719,7.243576c0,0 5.747942,0.348249 6.329582,-4.283462c0.034214,-0.417898 -0.27371,-0.766146 -0.650066,-0.766146l-1.984411,0c-0.273708,0 -0.547426,0.174126 -0.650064,0.487551c-0.171066,0.59202 -0.786922,1.567117 -2.908186,1.567117c0,0 -2.771334,0.174126 -3.21611,-2.507393c-0.06843,-0.417894 0.239492,-0.766147 0.650064,-0.766147l8.279779,0c0.342138,0 0.650063,-0.278598 0.650063,-0.66167c0.068428,-1.950195 -0.273712,-7.591824 -6.50065,-7.591824zm-2.73712,5.676455c-0.273708,0 -0.44478,-0.243776 -0.37635,-0.522375c0.273706,-0.835795 1.060631,-2.402916 3.14768,-2.402916c2.155478,0 2.66869,1.636769 2.805546,2.472566c0.034218,0.243775 -0.136856,0.452725 -0.376354,0.452725l-5.200521,0zm-8.553489,-1.671596c-0.239497,-0.069652 -0.273712,-0.417899 -0.034214,-0.522372c0.786922,-0.417898 1.744912,-1.323347 1.744912,-3.273538c0,-3.378015 -2.326549,-5.049608 -5.268949,-5.049608l-9.237769,0c-0.273711,0 -0.478995,0.208949 -0.478995,0.487547l0,17.969637c0,0.278601 0.205284,0.487545 0.478995,0.487545l9.203555,0c0,0 5.919013,0.174126 5.919013,-5.606802c0,0.034822 0.205282,-3.656613 -2.326549,-4.492409zm-9.032484,-5.119255c0,-0.208949 0.17107,-0.348252 0.34214,-0.348252l5.063664,0c0,0 1.30013,0 1.30013,1.985018c0,1.985021 -0.786921,2.26362 -1.64227,2.26362l-4.687311,0c-0.205283,0 -0.342139,-0.174126 -0.342139,-0.348252l0,-3.552134l-0.034214,0zm5.166305,11.875281l-4.789952,0c-0.205283,0 -0.342139,-0.174127 -0.342139,-0.348248l0,-4.35311c0,-0.20895 0.17107,-0.348249 0.342139,-0.348249l5.063666,0c0,0 1.984408,-0.034822 1.950192,2.611866c0,2.19397 -1.471198,2.402915 -2.223907,2.437742zm11.119536,-14.835398l0,1.636769c0,0.208949 0.17107,0.348249 0.342142,0.348249l6.979645,0c0.205286,0 0.342142,-0.174123 0.342142,-0.348249l0,-1.636769c0,-0.208949 -0.171068,-0.348248 -0.342142,-0.348248l-6.945431,0c-0.205286,-0.034823 -0.376356,0.139299 -0.376356,0.348248z" class="st0"/>
 </g>
</svg>