<svg width="44" height="44" xmlns="http://www.w3.org/2000/svg">

 <g>
  <title>background</title>
  <rect fill="none" id="canvas_background" height="46" width="46" y="-1" x="-1"/>
 </g>
 <g>
  <title>Layer 1</title>
  <path stroke="null" fill="#461a3f" id="svg_1" d="m13.384128,21.052422l0,18.685165l-6.192692,0l0,-18.685165l6.192692,0zm0.394081,-5.769586q0.018764,1.376405 -0.947669,2.300292t-2.542758,0.923889l-0.037532,0q-1.53879,0 -2.477077,-0.923889t-0.938286,-2.300292q0,-1.39526 0.966435,-2.30972t2.523992,-0.914461t2.495844,0.914461t0.957052,2.30972zm21.880845,13.745191l0,10.70956l-6.173923,0l0,-9.993076q0,-1.979759 -0.760015,-3.101624t-2.373865,-1.121864q-1.182243,0 -1.979786,0.650494t-1.191624,1.612091q-0.206425,0.565647 -0.206425,1.527241l0,10.426739l-6.173923,0q0.037529,-7.52309 0.037529,-12.199093t-0.018764,-5.581039l-0.018764,-0.905033l6.173923,0l0,2.715099l-0.037531,0q0.375315,-0.603355 0.769396,-1.055872t1.060265,-0.980452t1.632622,-0.820187t2.148672,-0.29225q3.208944,0 5.160578,2.140024t1.951637,6.269241z"/>
 </g>
</svg>